<svg id="bold" enable-background="new 0 0 32 32" height="512" viewBox="0 0 32 32" width="512" xmlns="http://www.w3.org/2000/svg"><path d="m26 32h-20c-3.314 0-6-2.686-6-6v-20c0-3.314 2.686-6 6-6h20c3.314 0 6 2.686 6 6v20c0 3.314-2.686 6-6 6z" fill="#f5e6fe"/><path d="m23.5 18c-.276 0-.5-.224-.5-.5 0-1.93-1.57-3.5-3.5-3.5h-4.833v2.167c0 .44-.529.662-.845.362l-3.667-3.5c-.099-.095-.155-.226-.155-.362 0-.137.056-.267.155-.362l3.667-3.5c.318-.303.845-.077.845.362v2.167h4.167c2.849 0 5.167 2.318 5.167 5.167v1c-.001.275-.225.499-.501.499z" fill="#be63f9"/><path d="m17.333 22.833v-2.167h-4.167c-2.848.001-5.166-2.317-5.166-5.166v-1c0-.276.224-.5.5-.5s.5.224.5.5c0 1.93 1.57 3.5 3.5 3.5h4.833v-2.167c0-.438.527-.666.845-.362l3.667 3.5c.099.095.155.226.155.362 0 .137-.056.267-.155.362l-3.667 3.5c-.317.303-.845.077-.845-.362z" fill="#d9a4fc"/></svg>